<svg width="395" height="373" viewBox="0 0 395 373" fill="none" xmlns="http://www.w3.org/2000/svg">
<path d="M121.119 317.63L86.799 323.51C78.215 324.993 69.4043 322.945 62.3007 317.813C55.197 312.682 50.381 304.888 48.9095 296.142L17.6185 99.4466L188.744 70.175C188.834 70.1443 188.911 70.0811 188.959 69.9973C189.007 69.9134 189.024 69.8146 189.007 69.719C188.989 69.6235 188.938 69.5377 188.863 69.4777C188.788 69.4176 188.694 69.3873 188.598 69.3924L17.494 98.6852L16.083 89.8022C14.6155 81.0463 16.6197 72.0547 21.6548 64.8046C26.6899 57.5545 34.3438 52.6394 42.9335 51.14L288.178 9.19954C292.434 8.44395 296.794 8.55261 301.009 9.51927C305.224 10.4859 309.209 12.2916 312.738 14.8325C316.266 17.3735 319.267 20.5997 321.569 24.326C323.87 28.0523 325.427 32.2052 326.15 36.5465L327.603 45.6198L210.303 65.6912C210.198 65.6912 210.098 65.7335 210.024 65.8089C209.95 65.8842 209.909 65.9865 209.909 66.093C209.909 66.1996 209.95 66.3018 210.024 66.3772C210.098 66.4525 210.198 66.4949 210.303 66.4949C210.51 66.4949 210.801 66.4949 327.665 46.4024L341.837 135.571L342.314 133.456L326.814 36.335C325.303 27.391 320.369 19.4251 313.096 14.1895C305.823 8.95391 296.807 6.87748 288.032 8.41699L42.809 50.3997C34.0255 51.9359 26.1983 56.9602 21.0441 64.3706C15.89 71.781 13.8298 80.9725 15.3152 89.9291L48.1002 296.29C49.6074 305.242 54.5367 313.221 61.8069 318.474C69.0771 323.728 78.0948 325.828 86.882 324.313L121.202 318.434C121.307 318.422 121.403 318.369 121.469 318.286C121.535 318.203 121.566 318.096 121.555 317.99C121.544 317.883 121.492 317.785 121.41 317.718C121.329 317.65 121.224 317.619 121.119 317.63Z" fill="#7962D5"/>
<path d="M359.661 242.801L342.875 137.263L342.397 139.378L358.894 243.013C360.342 251.762 358.327 260.74 353.289 267.976C348.252 275.213 340.603 280.116 332.022 281.612L133.362 315.515C133.273 315.545 133.198 315.607 133.15 315.688C133.102 315.77 133.084 315.866 133.099 315.96C133.114 316.054 133.161 316.139 133.232 316.201C133.303 316.263 133.393 316.297 133.486 316.298L332.168 282.288C340.94 280.747 348.757 275.727 353.909 268.328C359.061 260.928 361.129 251.751 359.661 242.801Z" fill="#7962D5"/>
<path d="M331.192 183.201L341.567 136.501L311.957 137.601L301.333 147.499C305.054 148.306 308.668 149.555 312.102 151.222C313.558 151.853 314.892 152.741 316.045 153.844C317.663 155.727 309.01 153.02 304.736 152.554C305.581 153.034 306.357 153.632 307.039 154.331C308.139 155.6 303.47 153.887 299.217 153.168C298.411 152.956 297.576 152.884 296.747 152.956C300.897 154.838 307.226 158.413 308.741 161.162C310.567 164.504 301.229 157.884 295.191 157.694C299.03 159.513 303.201 161.924 304.715 164.821C306.79 168.628 299.362 161.67 290.522 161.374C298.968 166.577 302.972 170.87 290.937 165.604C288.74 164.591 286.389 163.969 283.986 163.764L259.916 186.225C336.525 183.158 331.13 183.476 331.192 183.201Z" fill="#7962D5"/>
<path d="M350.344 103.74L332.811 182.439L376.801 135.021L394.314 56.4275L350.344 103.74Z" fill="#7962D5"/>
<path d="M139.4 226.685C135.356 231.253 129.702 234.002 123.674 234.331C117.647 234.66 111.737 232.542 107.238 228.44L68.3936 192.845C73.1389 180.104 82.3715 169.623 94.2896 163.446L120.123 187.113C137.657 141.979 156.353 138.468 162.37 133.223C174.343 142.846 180.132 146.442 195.819 149.424C191.918 188.636 193.973 234.172 187.914 259.996C186.476 266.072 183.581 271.69 179.489 276.345L151.85 307.732C139.61 302.363 129.415 293.084 122.8 281.294L149.007 251.684L155.378 208.475C205.925 151.116 189.345 169.918 139.4 226.685Z" fill="#FFF494"/>
<path d="M246.823 47.6079C245.161 47.6051 243.535 47.118 242.135 46.2041C240.736 45.2902 239.623 43.9875 238.926 42.4498C238.229 40.912 237.978 39.2032 238.202 37.5249C238.427 35.8465 239.118 34.2686 240.193 32.9771C241.268 31.6856 242.683 30.7345 244.272 30.2357C245.86 29.737 247.555 29.7115 249.157 30.1622C250.759 30.613 252.201 31.5211 253.313 32.7797C254.425 34.0383 255.161 35.5947 255.434 37.2656C255.642 38.5393 255.575 39.844 255.238 41.0887C254.901 42.3334 254.302 43.4883 253.482 44.4728C252.662 45.4573 251.642 46.2478 250.492 46.7893C249.342 47.3307 248.09 47.6101 246.823 47.6079ZM240.598 34.1565C239.863 35.2064 239.393 36.4248 239.23 37.7039C239.067 38.983 239.215 40.2834 239.663 41.4899C240.11 42.6964 240.843 43.7718 241.795 44.6211C242.748 45.4703 243.891 46.0671 245.124 46.3586C246.356 46.6502 247.641 46.6275 248.863 46.2926C250.085 45.9576 251.207 45.3208 252.13 44.4384C253.053 43.5561 253.748 42.4554 254.155 41.2338C254.561 40.0122 254.665 38.7074 254.459 37.4348C254.205 35.9021 253.51 34.4809 252.462 33.3514C251.414 32.2219 250.061 31.435 248.574 31.0906C247.087 30.7462 245.533 30.8598 244.109 31.4169C242.685 31.9741 241.456 32.9497 240.577 34.22L240.598 34.1565Z" fill="#7962D5"/>
<path d="M269.15 43.8432C267.488 43.8404 265.862 43.3533 264.463 42.4394C263.063 41.5255 261.95 40.2228 261.253 38.6851C260.556 37.1473 260.305 35.4385 260.53 33.7602C260.754 32.0818 261.445 30.5039 262.52 29.2124C263.595 27.9209 265.011 26.9698 266.599 26.471C268.187 25.9723 269.882 25.9468 271.484 26.3975C273.086 26.8482 274.528 27.7564 275.64 29.015C276.752 30.2736 277.488 31.83 277.761 33.5009C277.973 34.7751 277.909 36.0812 277.573 37.3275C277.238 38.5738 276.639 39.7302 275.818 40.7156C274.998 41.701 273.976 42.4916 272.824 43.0318C271.672 43.5721 270.418 43.8491 269.15 43.8432ZM262.925 30.3918C262.19 31.4417 261.72 32.6601 261.557 33.9392C261.394 35.2183 261.543 36.5186 261.99 37.7252C262.438 38.9317 263.17 40.0071 264.123 40.8563C265.075 41.7056 266.218 42.3024 267.451 42.5939C268.684 42.8855 269.968 42.8628 271.19 42.5278C272.412 42.1929 273.534 41.5561 274.457 40.6737C275.38 39.7914 276.076 38.6907 276.482 37.4691C276.888 36.2475 276.993 34.9426 276.786 33.6701C276.541 32.1326 275.853 30.704 274.81 29.5664C273.766 28.4288 272.413 27.6336 270.925 27.282C269.436 26.9304 267.878 27.0384 266.45 27.5922C265.022 28.146 263.787 29.1206 262.904 30.3918H262.925Z" fill="#7962D5"/>
<path d="M300.461 29.6727C300.18 27.9397 299.401 26.3306 298.222 25.0489C297.043 23.7672 295.518 22.8705 293.84 22.4721C292.161 22.0737 290.405 22.1915 288.792 22.8107C287.179 23.4299 285.782 24.5225 284.779 25.9506C283.775 27.3787 283.209 29.078 283.153 30.8337C283.097 32.5894 283.553 34.3228 284.463 35.8145C285.373 37.3063 286.696 38.4895 288.266 39.2146C289.836 39.9397 291.581 40.1741 293.282 39.8882C294.413 39.7009 295.496 39.2876 296.47 38.6721C297.443 38.0566 298.288 37.2511 298.955 36.3018C299.622 35.3525 300.099 34.2781 300.357 33.1405C300.616 32.0028 300.651 30.8243 300.461 29.6727Z" fill="#7962D5"/>
<path d="M68.6221 18.4844L58.2471 11.0396L65.5511 0.570338C65.5886 0.486294 65.5966 0.391626 65.5738 0.302265C65.5509 0.212904 65.4985 0.134304 65.4254 0.079689C65.3524 0.0250741 65.2631 -0.0022219 65.1726 0.00239474C65.0821 0.00701139 64.9959 0.0432585 64.9286 0.105037L57.6246 10.68L47.2496 3.23524C46.8346 2.91799 46.3781 3.57364 46.7931 3.89089L57.1681 11.3145L49.8641 21.8895C49.8226 21.9489 49.7979 22.0187 49.7923 22.0914C49.7868 22.164 49.8008 22.2368 49.8328 22.302C49.8648 22.3672 49.9135 22.4223 49.9739 22.4614C50.0342 22.5005 50.1038 22.5222 50.1753 22.524C50.4866 22.524 50.0093 23.0528 57.8113 11.949C68.7258 19.8591 68.1863 19.4784 68.3108 19.4784C68.4401 19.5205 68.5806 19.5085 68.7012 19.445C68.8218 19.3816 68.9128 19.2719 68.9541 19.14C68.9953 19.0082 68.9835 18.8651 68.9213 18.7421C68.859 18.6192 68.7514 18.5265 68.6221 18.4844Z" fill="#7962D5"/>
<path d="M55.4664 216.766C55.1966 216.533 58.5789 215.37 4.91936 233.115C4.85564 233.139 4.79914 233.179 4.75535 233.232C4.71156 233.285 4.68196 233.349 4.66943 233.417C4.6569 233.485 4.66187 233.555 4.68384 233.621C4.70582 233.687 4.74406 233.745 4.79486 233.791L19.0501 246.672L0.126105 267.822C0.0890901 267.859 0.0597067 267.904 0.0396541 267.953C0.0196014 268.002 0.00927734 268.054 0.00927734 268.107C0.00927734 268.16 0.0196014 268.213 0.0396541 268.262C0.0597067 268.311 0.0890901 268.355 0.126105 268.393C11.1651 278.291 10.5011 277.805 10.6671 277.805C10.8331 277.805 9.65035 279.137 29.8816 256.443L44.0954 269.323C44.1466 269.369 44.2086 269.4 44.2752 269.414C44.3419 269.428 44.4109 269.424 44.4757 269.403C44.5404 269.382 44.5987 269.344 44.6448 269.293C44.6908 269.242 44.7232 269.179 44.7386 269.112C56.4001 213.72 55.7154 217.019 55.4664 216.766ZM29.5704 255.703L10.6464 276.853L0.935355 268.139C21.3119 245.276 19.9631 246.989 19.9424 246.608C19.9216 246.228 20.7724 247.2 5.8116 233.664L36.3764 223.661L43.3484 267.674L30.1099 255.66C30.0316 255.596 29.9322 255.565 29.8319 255.572C29.7316 255.58 29.638 255.627 29.5704 255.703Z" fill="#7962D5"/>
<path d="M259.397 263.401C259.19 263.401 259.211 263.401 228.77 253.757C228.705 253.724 228.65 253.672 228.611 253.609C228.573 253.545 228.552 253.472 228.552 253.397C228.552 253.323 228.573 253.25 228.611 253.186C228.65 253.123 228.705 253.071 228.77 253.038L254.438 234.849C254.523 234.81 254.618 234.803 254.708 234.828C254.797 234.854 254.875 234.911 254.927 234.99C254.979 235.068 255.002 235.163 254.992 235.257C254.983 235.351 254.941 235.439 254.874 235.505L229.974 253.228L259.501 262.64C259.6 262.654 259.69 262.708 259.75 262.789C259.81 262.87 259.837 262.973 259.823 263.074C259.809 263.175 259.756 263.266 259.677 263.327C259.597 263.389 259.496 263.415 259.397 263.401Z" fill="#7962D5"/>
<path d="M284.235 258.6L309.135 239.861L279.587 231.401C279.53 231.396 279.474 231.378 279.424 231.349C279.374 231.319 279.331 231.279 279.298 231.23C279.265 231.182 279.243 231.126 279.233 231.068C279.223 231.01 279.226 230.95 279.242 230.894C279.257 230.837 279.285 230.784 279.323 230.739C279.36 230.695 279.407 230.659 279.46 230.635C279.513 230.61 279.57 230.598 279.628 230.599C279.686 230.6 279.743 230.614 279.795 230.64C301.997 236.647 308.119 238.444 309.779 239.1C310.526 239.396 310.712 239.565 309.965 240.221C308.575 241.384 303.429 245.234 284.754 259.256C284.669 259.326 284.56 259.359 284.451 259.347C284.342 259.335 284.242 259.279 284.173 259.193C284.104 259.106 284.072 258.994 284.084 258.883C284.096 258.772 284.15 258.67 284.235 258.6Z" fill="#7962D5"/>
<path d="M263.402 274.886L274.545 219.515C274.565 219.412 274.624 219.321 274.709 219.261C274.795 219.202 274.9 219.179 275.001 219.198C275.104 219.223 275.194 219.288 275.252 219.378C275.31 219.468 275.331 219.578 275.313 219.684L264.17 275.055C264.141 275.151 264.077 275.232 263.992 275.283C263.907 275.334 263.806 275.35 263.71 275.329C263.614 275.308 263.528 275.25 263.471 275.168C263.414 275.086 263.39 274.986 263.402 274.886Z" fill="#7962D5"/>
<path d="M316.5 153.436C315.283 152.288 313.878 151.365 312.35 150.708C306.831 147.937 305.627 147.874 249.706 134.02L233.957 120.696C234.434 118.729 234.309 117.46 233.562 116.952C233.355 116.804 234.434 117.756 198.287 84.5294C197.582 79.3957 198.037 74.1656 199.615 69.2379C210.717 73.2141 213.622 63.2525 211.318 51.5354C211.882 51.1637 212.358 50.6687 212.711 50.0862C213.064 49.5038 213.285 48.8486 213.359 48.1681C213.432 47.4876 213.356 46.799 213.136 46.1523C212.916 45.5055 212.557 44.9168 212.086 44.429C212.759 43.9942 213.308 43.3859 213.676 42.6656C214.044 41.9454 214.219 41.1388 214.184 40.3274C214.148 39.516 213.902 38.7287 213.472 38.045C213.042 37.3614 212.442 36.8057 211.733 36.4343C211.733 36.4343 210 34 205.5 33.5C201 33 197.5 34 197.5 34C197.165 32.867 193 32 190 33C187 34 187.5 30.5 182 32.5C176.5 34.5 174.5 37 172.5 40.5C169.882 45.0813 172 48.2122 170.5 52.2122C169 56.2122 161 53 159 58.5C157 64.0001 159.393 64.9932 158.5 69C157.774 72.2567 157.316 74.201 155.5 77C153.956 79.379 152.027 79.8764 150.5 82.2664C146.759 88.1236 145.854 93.8028 149 100C152.558 107.008 167 109 167 109C167 109 169.665 98.065 170 99.6161L172.812 91L178.591 82.3883L188.659 68.688C188.659 68.688 176.085 83.9372 172.495 91.657C163.158 111.728 166.789 118.391 161.871 132.878C154.028 138.61 136.971 143.073 119.811 186.346L94.4336 163.229C94.3537 163.156 94.2503 163.115 94.1431 163.115C94.0359 163.115 93.9325 163.156 93.8526 163.229C91.1487 164.628 88.5725 166.27 86.1544 168.135C73.0611 157.56 72.0236 157.264 61.3996 145.441C61.3569 145.39 61.3019 145.352 61.2399 145.33C61.178 145.307 61.1114 145.302 61.0469 145.314C39.4254 148.254 14.4216 155.826 3.6731 161.114C3.59986 161.14 3.53637 161.188 3.49144 161.253C3.4465 161.317 3.42236 161.394 3.42236 161.473C3.42236 161.552 3.4465 161.629 3.49144 161.694C3.53637 161.758 3.59986 161.807 3.6731 161.833C19.5371 167.996 36.5504 170.475 53.4731 169.087L71.2973 185.415C70.0781 187.584 68.9968 189.83 68.0603 192.141C67.9591 192.377 67.9347 192.64 67.9907 192.891C68.0467 193.142 68.1802 193.368 68.3716 193.537L106.759 228.688C111.333 232.868 117.346 235.029 123.481 234.696C129.615 234.363 135.37 231.563 139.482 226.911L154.671 209.674L148.446 251.466L122.716 280.696C122.572 280.853 122.483 281.053 122.46 281.267C122.438 281.48 122.484 281.695 122.591 281.88C123.933 284.166 125.394 286.375 126.97 288.5C113.399 305.42 103.232 315.022 103.128 315.614C100.928 328.833 101.987 358.93 106.137 372.719C106.158 372.792 106.2 372.857 106.257 372.907C106.313 372.957 106.383 372.989 106.456 373C106.53 373.011 106.606 373.001 106.674 372.97C106.742 372.939 106.801 372.889 106.842 372.825C117.632 354.552 121.533 343.215 127.281 323.249L144.088 304.214C146.333 305.598 148.661 306.835 151.06 307.916C151.239 307.991 151.436 308.009 151.625 307.967C151.814 307.926 151.986 307.827 152.119 307.683L179.592 276.508C183.728 271.806 186.651 266.13 188.099 259.99C194.117 234.314 192.249 188.249 196.005 149.46L199.947 142.205L205.176 146.71C205.986 147.451 208.081 146.478 209.223 145.314L224.287 156.989C227.768 159.581 231.866 161.173 236.156 161.6C236.633 161.6 284.151 163.102 290.583 165.957C292.86 167.166 295.312 167.994 297.846 168.41C298.448 168.41 298.551 168.178 298.655 168.008C299.236 166.845 295.086 163.778 291.891 161.833C299.236 162.721 304.341 167.268 305.316 166.063C305.648 165.703 305.316 165.069 305.067 164.519C303.105 161.764 300.473 159.577 297.431 158.174C301.996 159.252 307.1 162.404 308.677 162.404C309.321 162.404 309.715 161.896 309.134 160.86C307.578 158.026 302.909 155.361 298.863 153.457C302.079 154.007 305.523 155.022 306.789 155.022C307.681 155.022 307.868 154.451 307.37 153.859C307.09 153.544 306.785 153.254 306.457 152.992C309.653 153.563 313.969 154.705 315.67 154.705C316.874 154.769 317.04 154.071 316.5 153.436ZM232.234 116.804C229.848 117.397 226.383 121.394 224.806 123.34L224.038 122.642C224.038 122.409 224.951 119.554 223.644 118.708L201.462 98.298C200.054 94.2381 199.052 90.043 198.474 85.7773L232.234 116.804ZM189.22 69.3014C192.208 63.9716 194.529 59.1395 191.5 54C192.908 53.6827 190.5 47 190 47C190 47 195.548 47.1904 199 46.5C202.452 45.8096 207.5 43.5 207.5 43.5L208.455 44.6616C210.966 50.8797 213.124 63.2102 208.455 67.7151C205.965 70.0628 201.981 69.8301 196.586 66.9749C196.337 66.8268 195.839 66.9749 196.171 67.7363C196.503 68.4977 196.897 69.3437 197.997 71.7971C197.336 74.829 197.078 77.9377 197.229 81.0397C194.117 85.5023 188.058 80.6378 184.115 76.8096C185.999 74.4408 187.705 71.931 189.22 69.3014ZM55.0086 169.341C58.6181 163.507 63.0035 158.212 68.0396 153.605C73.5653 158.895 79.3998 163.839 85.5111 168.41C79.9336 172.841 75.2482 178.327 71.7123 184.569L55.0086 169.341ZM126.97 322.446C121.236 318.173 116.171 313.038 111.947 307.218C117.611 301 122.861 294.866 127.405 289.219C131.893 294.976 137.284 299.936 143.362 303.897L126.97 322.446ZM187.352 259.821C185.941 265.831 183.089 271.39 179.052 276L160.647 296.897C148.944 291.333 139.003 282.541 131.95 271.517C150.21 250.79 149.297 251.911 149.317 251.699L152.534 229.872L186.211 173.804C186.248 173.72 186.256 173.625 186.234 173.536C186.211 173.446 186.158 173.368 186.085 173.313C186.012 173.258 185.923 173.231 185.832 173.236C185.742 173.24 185.656 173.276 185.588 173.338L138.922 226.213C134.946 230.705 129.385 233.408 123.457 233.729C117.53 234.05 111.719 231.964 107.299 227.926L77.2526 200.431C80.4256 194.482 84.2319 188.907 88.6028 183.808C124.957 213.143 122.508 211.303 122.716 211.303C122.923 211.303 122.363 212.149 158.344 158.279C163.266 156.913 167.882 154.586 171.935 151.427C172.006 151.359 172.049 151.266 172.057 151.167C172.065 151.068 172.037 150.969 171.977 150.89C171.918 150.811 171.832 150.757 171.736 150.739C171.64 150.721 171.541 150.74 171.458 150.792C163.891 156.525 154.63 159.45 145.209 159.083C145.104 159.083 145.004 159.126 144.93 159.201C144.856 159.276 144.815 159.378 144.815 159.485C144.815 159.592 144.856 159.694 144.93 159.769C145.004 159.845 145.104 159.887 145.209 159.887C149.238 159.975 153.262 159.534 157.182 158.576L122.612 210.351L89.1216 183.3C93.0624 178.83 97.5785 174.924 102.547 171.689L119.707 187.382C119.753 187.419 119.808 187.444 119.866 187.456C119.924 187.467 119.983 187.465 120.04 187.448C120.097 187.432 120.149 187.402 120.192 187.361C120.235 187.32 120.268 187.269 120.288 187.213C137.137 144.405 153.737 139.752 162.162 133.619C173.636 142.819 179.592 146.647 195.196 149.671C191.357 188.609 193.349 234.187 187.352 259.821ZM204.595 145.188L181.625 125.349C181.552 125.288 181.461 125.256 181.367 125.258C181.273 125.26 181.183 125.296 181.113 125.36C181.043 125.424 180.997 125.511 180.985 125.606C180.972 125.701 180.993 125.797 181.044 125.878C194.407 147.028 195.424 148.91 195.424 148.91C179.924 145.928 174.031 142.142 162.639 133.005C167.557 118.348 163.905 111.961 173.18 92.0165C175.483 87.0674 179.654 82.3721 183.555 77.4653C187.414 81.2088 193.515 86.158 197.229 82.2664C197.595 87.3584 198.592 92.3826 200.196 97.2194L186.605 84.7832C186.232 84.4237 185.713 85.0159 186.086 85.3754L222.357 118.581C216.942 119.956 204.243 138.843 204.595 145.188ZM306.644 154.303C305.254 154.303 299.527 152.569 296.269 152.4C294.65 151.706 292.995 151.105 291.31 150.602C291.212 150.589 291.113 150.615 291.032 150.673C290.952 150.731 290.896 150.818 290.875 150.916C290.854 151.014 290.87 151.117 290.92 151.203C290.97 151.29 291.049 151.355 291.144 151.385C294.899 152.188 307.287 157.73 308.594 161.685C307.363 161.347 306.168 160.887 305.025 160.31C301.932 158.724 298.601 157.673 295.169 157.201C292.866 156.101 290.853 155.318 290.065 155.086C289.974 155.07 289.881 155.087 289.801 155.134C289.722 155.181 289.661 155.254 289.629 155.342C289.597 155.43 289.596 155.526 289.626 155.615C289.657 155.703 289.716 155.778 289.795 155.826C293.945 157.328 303.033 161.41 304.61 165.576C302.93 165.111 297.078 161.219 290.438 160.966L289.089 160.141C288.999 160.087 288.891 160.073 288.789 160.101C288.688 160.129 288.602 160.196 288.55 160.289C288.498 160.381 288.484 160.491 288.511 160.594C288.538 160.697 288.604 160.785 288.695 160.839C294.588 164.35 297.576 166.909 297.887 167.649C297.555 167.649 296.144 167.649 290.874 165.259C284.317 162.361 238.127 160.902 236.198 160.86C232.052 160.437 228.091 158.897 224.723 156.397L206.048 141.867C208.33 135.078 215.572 124.355 220.573 120.548L239.559 137.849C239.767 138.039 237.899 137.574 293.053 148.635C296.912 149.671 304.237 151.744 306.644 154.303ZM304.859 152.019C301.147 150.204 297.26 148.786 293.26 147.789L239.995 137.214L225.47 123.995C226.917 122.088 228.566 120.351 230.388 118.814L249.291 134.803C249.291 134.803 297.161 146.732 299.651 147.366C303.941 148.306 308.116 149.724 312.101 151.596C313.524 152.204 314.83 153.064 315.961 154.134C314.55 154.155 308.096 152.379 304.859 152.019Z" fill="#9C4DF7"/>
</svg>
